<svg width="430" height="618" viewBox="0 0 430 618" fill="none" xmlns="http://www.w3.org/2000/svg">
<path d="M-318 325.916C-318 413.735 -268.719 484.927 -207.927 484.927C-187.505 484.927 -168.381 476.892 -151.989 462.892C-127.133 539.854 -73.0888 593.19 -10.4214 593.19C14.1742 593.19 37.4415 584.974 58.1371 570.339C81.5057 600.008 112.153 618 145.71 618C179.703 618 210.711 599.537 234.191 569.174C248.311 574.542 263.135 577.401 278.421 577.401C323.66 577.401 364.851 552.361 395.714 511.352C399.253 511.776 402.834 511.993 406.449 511.993C441.435 511.993 473.144 491.72 496.252 458.863C500.063 459.689 503.964 460.117 507.934 460.117C551.049 460.117 586 409.626 586 347.343C586 289.836 556.203 242.382 517.696 235.443C495.647 179.68 454.086 142.095 406.449 142.095C402.834 142.095 399.253 142.311 395.714 142.736C364.851 101.726 323.66 76.6861 278.421 76.6861C255.273 76.6861 233.185 83.2421 212.999 95.1388C181.257 37.1846 132.141 0 77.0121 0C24.5409 0 -22.4839 33.6862 -54.2646 86.9049C-67.424 78.8721 -81.8901 74.4307 -97.0743 74.4307C-141.619 74.4307 -179.983 112.655 -197.308 167.636C-200.803 167.152 -204.345 166.905 -207.927 166.905C-268.719 166.905 -318 238.097 -318 325.916Z" fill="#F8CD59"/>
<path d="M-136 292.197C-136 339.943 -101.165 378.65 -58.1943 378.65C-43.7583 378.65 -30.2406 374.281 -18.6534 366.669C-1.08403 408.513 37.1175 437.511 81.4145 437.511C98.8001 437.511 115.247 433.044 129.876 425.087C146.394 441.218 168.057 451 191.777 451C215.806 451 237.724 440.962 254.321 424.454C264.302 427.373 274.78 428.927 285.586 428.927C317.563 428.927 346.679 415.313 368.495 393.016C370.997 393.247 373.527 393.365 376.083 393.365C400.813 393.365 423.227 382.343 439.561 364.479C442.255 364.928 445.012 365.161 447.819 365.161C478.294 365.161 503 337.709 503 303.847C503 272.581 481.938 246.78 454.719 243.008C439.133 212.69 409.756 192.255 376.083 192.255C373.527 192.255 370.997 192.373 368.495 192.604C346.679 170.308 317.563 156.693 285.586 156.693C269.223 156.693 253.61 160.258 239.341 166.726C216.904 135.217 182.186 115 143.218 115C106.128 115 72.8881 133.315 50.4236 162.249C41.1218 157.882 30.8963 155.467 20.1632 155.467C-11.3235 155.467 -38.4418 176.249 -50.6879 206.142C-53.1581 205.879 -55.6621 205.745 -58.1943 205.745C-101.165 205.745 -136 244.451 -136 292.197Z" fill="#DFBBC6"/>
<circle cx="213.5" cy="282.5" r="135.5" fill="#9F60FF"/>
<path d="M127.581 158.546C127.581 174.626 134.163 170.822 133.997 174.241C133.918 175.858 130.783 177.857 127.581 186.638C117.963 186.638 94.6727 189.227 83.2778 180.564C76.7965 175.636 78.1091 162.959 78.1091 154.37C78.1091 147.526 86.4753 154.976 86.2313 149.055C85.6307 134.48 79.5626 124 90.2924 124C92.9551 124 95.8393 124.338 98.7839 125.025C103.395 126.101 108.155 128.032 112.444 130.862C114.287 132.077 116.042 133.459 117.662 135.009C123.506 140.602 127.581 148.396 127.581 158.546Z" fill="#9F60FF"/>
<path d="M290.328 160.514C293.096 182.353 283.011 162.153 293.611 186.409C300.757 185.503 318.364 185.697 325.818 176.638C330.058 171.485 327.601 159.923 326.597 152.005C325.798 145.697 320.452 153.352 319.942 147.871C318.685 134.379 321.969 124.147 313.997 125.158C312.018 125.408 309.915 125.992 307.807 126.902C304.507 128.328 301.196 130.557 298.34 133.569C297.113 134.863 295.97 136.302 294.947 137.884C291.259 143.59 289.142 151.158 290.328 160.514Z" fill="#9F60FF"/>
<path d="M91.6335 299.595C80.081 314.813 65.1856 322.952 58.3637 317.773C51.5417 312.594 54.3412 291.17 65.8936 275.952C77.4461 260.734 93.3767 257.484 100.199 262.663C107.021 267.842 103.186 284.377 91.6335 299.595Z" fill="#9F60FF"/>
<path d="M329.429 294.787C322.565 276.956 323.48 260.007 331.473 256.93C339.466 253.853 356.213 267.505 363.077 285.336C369.942 303.166 364.324 318.424 356.331 321.501C348.338 324.578 336.293 312.618 329.429 294.787Z" fill="#9F60FF"/>
<path d="M203 209C203 214.523 207.701 219 213.5 219C219.299 219 224 214.523 224 209" stroke="#353338" stroke-width="4"/>
<path d="M198 192C198 186.477 193.299 182 187.5 182C181.701 182 177 186.477 177 192" stroke="#353338" stroke-width="4"/>
<path d="M248 192C248 186.477 243.299 182 237.5 182C231.701 182 227 186.477 227 192" stroke="#353338" stroke-width="4"/>
<path d="M32 418.235C32 442.819 51.9523 462.748 76.5648 462.748C84.8333 462.748 92.5758 460.499 99.2126 456.58C109.276 478.124 131.157 493.055 156.529 493.055C166.486 493.055 175.907 490.755 184.286 486.658C193.747 494.964 206.155 500 219.741 500C233.504 500 246.058 494.832 255.564 486.332C261.281 487.835 267.283 488.635 273.472 488.635C291.787 488.635 308.464 481.625 320.959 470.145C322.392 470.264 323.842 470.325 325.306 470.325C339.47 470.325 352.308 464.65 361.664 455.452C363.207 455.683 364.786 455.803 366.394 455.803C383.849 455.803 398 441.669 398 424.234C398 408.135 385.936 394.851 370.346 392.909C361.419 377.299 344.593 366.777 325.306 366.777C323.842 366.777 322.392 366.838 320.959 366.957C308.464 355.477 291.787 348.467 273.472 348.467C264.1 348.467 255.157 350.302 246.984 353.633C234.133 337.409 214.247 327 191.927 327C170.684 327 151.645 336.43 138.778 351.328C133.45 349.079 127.593 347.836 121.446 347.836C103.411 347.836 87.8784 358.536 80.8642 373.927C79.4493 373.792 78.0151 373.723 76.5648 373.723C51.9523 373.723 32 393.652 32 418.235Z" fill="white"/>
<path d="M317 428L328.899 464.622H367.406L336.253 487.256L348.153 523.878L317 501.244L285.847 523.878L297.747 487.256L266.594 464.622H305.101L317 428Z" fill="#FFDF88"/>
</svg>
