<svg width="160" height="46" viewBox="0 0 160 46" fill="none" xmlns="http://www.w3.org/2000/svg">
<path d="M24.956 45C23.528 45 22.331 44.643 21.365 43.929C20.441 43.173 19.79 42.165 19.412 40.905C19.076 39.729 18.866 38.448 18.782 37.062C18.74 35.676 18.719 33.723 18.719 31.203C18.719 28.851 18.614 27.108 18.404 25.974C18.236 24.84 17.795 24.273 17.081 24.273C16.241 24.273 15.653 24.651 15.317 25.407C14.981 26.121 14.813 27.15 14.813 28.494C14.813 29.712 14.981 31.623 15.317 34.227C15.359 34.731 15.443 35.529 15.569 36.621C15.695 37.713 15.758 38.616 15.758 39.33C15.758 41.346 15.296 42.774 14.372 43.614C13.49 44.454 12.188 44.874 10.466 44.874C8.408 44.874 6.623 43.761 5.111 41.535C3.599 39.309 2.465 36.537 1.709 33.219C0.953 29.859 0.575 26.562 0.575 23.328C0.575 19.464 1.121 15.873 2.213 12.555C3.347 9.237 5.027 6.57 7.253 4.554C9.521 2.538 12.251 1.53 15.443 1.53C18.131 1.53 20.273 2.37 21.869 4.05C23.465 5.688 24.536 7.683 25.082 10.035C25.544 7.725 26.573 5.73 28.169 4.05C29.807 2.37 31.949 1.53 34.595 1.53C37.745 1.53 40.433 2.517 42.659 4.491C44.927 6.423 46.649 9.132 47.825 12.618C49.043 16.104 49.652 20.136 49.652 24.714C49.652 27.696 49.232 30.783 48.392 33.975C47.552 37.125 46.376 39.75 44.864 41.85C43.352 43.95 41.63 45 39.698 45C37.934 45 36.59 44.559 35.666 43.677C34.742 42.795 34.28 41.346 34.28 39.33C34.28 38.406 34.448 36.684 34.784 34.164C35.12 31.476 35.288 29.544 35.288 28.368C35.288 25.638 34.553 24.273 33.083 24.273C32.327 24.273 31.844 24.882 31.634 26.1C31.466 27.318 31.361 29.292 31.319 32.022C31.319 34.08 31.277 35.802 31.193 37.188C31.109 38.532 30.92 39.771 30.626 40.905C30.29 42.123 29.618 43.11 28.61 43.866C27.644 44.622 26.426 45 24.956 45ZM70.0827 33.597C72.2247 33.849 73.8837 34.395 75.0597 35.235C76.2777 36.033 76.8867 37.314 76.8867 39.078C76.8867 40.842 76.2567 42.144 74.9967 42.984C73.7787 43.824 72.3087 44.349 70.5867 44.559C68.8647 44.727 66.6387 44.811 63.9087 44.811C61.2207 44.811 59.0157 44.727 57.2937 44.559C55.5717 44.349 54.1017 43.824 52.8837 42.984C51.6657 42.144 51.0567 40.842 51.0567 39.078C51.0567 37.356 51.6237 36.096 52.7577 35.298C53.9337 34.458 55.5297 33.891 57.5457 33.597C57.3357 31.161 57.2307 27.675 57.2307 23.139C57.2307 19.065 57.3147 15.789 57.4827 13.311C55.0467 13.059 53.1357 12.471 51.7497 11.547C50.3637 10.623 49.6707 9.174 49.6707 7.2C49.6707 5.268 50.3427 3.84 51.6867 2.916C53.0307 1.992 54.6477 1.425 56.5377 1.215C58.4277 1.005 60.8637 0.899997 63.8457 0.899997C66.8277 0.899997 69.2637 1.005 71.1537 1.215C73.0437 1.425 74.6607 1.992 76.0047 2.916C77.3907 3.84 78.0837 5.268 78.0837 7.2C78.0837 9.174 77.3697 10.623 75.9417 11.547C74.5557 12.471 72.6237 13.059 70.1457 13.311C70.3557 15.621 70.4607 18.897 70.4607 23.139C70.4607 27.213 70.3347 30.699 70.0827 33.597ZM116.399 18.729C116.399 21.795 115.937 24.504 115.013 26.856C114.131 29.208 112.871 31.182 111.233 32.778C112.619 34.92 113.312 36.999 113.312 39.015C113.312 40.737 112.64 42.165 111.296 43.299C109.994 44.433 108.503 45 106.823 45C105.857 45 104.975 44.853 104.177 44.559C103.379 44.265 102.518 43.761 101.594 43.047C100.796 42.417 100.04 41.556 99.3255 40.464C98.6115 39.372 98.0445 38.238 97.6245 37.062C96.2385 36.894 94.8525 36.537 93.4665 35.991C93.7185 37.335 93.8445 38.364 93.8445 39.078C93.8445 43.068 91.7655 45.063 87.6075 45.063C84.1215 45.063 81.6645 43.026 80.2365 38.952C78.8085 34.878 78.0945 29.901 78.0945 24.021C78.0945 20.031 78.8085 16.293 80.2365 12.807C81.7065 9.279 83.9325 6.444 86.9145 4.302C89.8965 2.118 93.5295 1.026 97.8135 1.026C101.258 1.026 104.387 1.761 107.201 3.231C110.015 4.659 112.241 6.717 113.879 9.405C115.559 12.093 116.399 15.201 116.399 18.729ZM92.8365 21.69C92.8365 23.118 93.4035 24.378 94.5375 25.47C95.6715 26.52 96.9735 27.045 98.4435 27.045C99.9555 27.045 101.258 26.52 102.35 25.47C103.484 24.378 104.051 23.118 104.051 21.69C104.051 20.22 103.484 18.96 102.35 17.91C101.258 16.818 99.9555 16.272 98.4435 16.272C96.9735 16.272 95.6715 16.818 94.5375 17.91C93.4035 19.002 92.8365 20.262 92.8365 21.69ZM128.159 45.126C125.345 45.126 123.077 43.761 121.355 41.031C119.675 38.259 118.688 34.521 118.394 29.817C118.352 29.145 118.331 28.158 118.331 26.856C118.331 21.774 119.171 17.28 120.851 13.374C122.531 9.426 124.904 6.381 127.97 4.239C131.078 2.055 134.69 0.962996 138.806 0.962996C142.922 0.962996 146.513 2.055 149.579 4.239C152.687 6.381 155.06 9.405 156.698 13.311C158.378 17.217 159.218 21.732 159.218 26.856C159.218 28.158 159.197 29.145 159.155 29.817C158.861 34.605 157.874 38.343 156.194 41.031C154.514 43.719 152.246 45.063 149.39 45.063C147.08 45.063 145.463 44.433 144.539 43.173C143.657 41.913 143.216 40.38 143.216 38.574C143.216 37.734 143.279 36.999 143.405 36.369C141.221 36.453 139.289 36.495 137.609 36.495C136.559 36.495 135.404 36.453 134.144 36.369C134.27 36.999 134.333 37.734 134.333 38.574C134.333 40.422 133.871 41.976 132.947 43.236C132.065 44.496 130.469 45.126 128.159 45.126ZM133.703 25.155C135.971 25.071 137.63 25.029 138.68 25.029C139.814 25.029 141.473 25.071 143.657 25.155C143.741 24.693 143.783 24 143.783 23.076C143.783 21.102 143.363 19.506 142.523 18.288C141.683 17.028 140.381 16.398 138.617 16.398C136.895 16.398 135.614 17.007 134.774 18.225C133.934 19.443 133.514 21.018 133.514 22.95C133.514 23.664 133.577 24.399 133.703 25.155Z" fill="white"/>
</svg>
