<svg width="366" height="173" viewBox="0 0 366 173" fill="none" xmlns="http://www.w3.org/2000/svg">
<path d="M0 91.2354C0 115.819 19.9523 135.748 44.5648 135.748C52.8333 135.748 60.5758 133.499 67.2126 129.58C77.2758 151.124 99.1565 166.055 124.529 166.055C134.486 166.055 143.907 163.755 152.286 159.658C161.747 167.964 174.155 173 187.741 173C201.504 173 214.058 167.832 223.564 159.332C229.281 160.835 235.283 161.635 241.472 161.635C259.787 161.635 276.464 154.625 288.959 143.145C290.392 143.264 291.842 143.325 293.306 143.325C307.47 143.325 320.308 137.65 329.664 128.452C331.207 128.683 332.786 128.803 334.394 128.803C351.849 128.803 366 114.669 366 97.2336C366 81.1352 353.936 67.8512 338.346 65.9087C329.419 50.2988 312.593 39.7774 293.306 39.7774C291.842 39.7774 290.392 39.838 288.959 39.9568C276.464 28.4768 259.787 21.4672 241.472 21.4672C232.1 21.4672 223.157 23.3024 214.984 26.6327C202.133 10.4093 182.247 0 159.927 0C138.684 0 119.645 9.42996 106.778 24.3277C101.45 22.0791 95.5932 20.8358 89.4456 20.8358C71.411 20.8358 55.8784 31.536 48.8642 46.9271C47.4493 46.7918 46.0151 46.7226 44.5648 46.7226C19.9523 46.7226 0 66.6517 0 91.2354Z" fill="white"/>
</svg>
