<svg width="332" height="294" viewBox="0 0 332 294" fill="none" xmlns="http://www.w3.org/2000/svg">
<circle cx="170.5" cy="158.5" r="135.5" fill="#9F60FF"/>
<path d="M84.5809 34.5456C84.5809 50.6259 91.1632 46.8223 90.9969 50.2405C90.9182 51.8584 87.7833 53.8567 84.5809 62.6376C74.9629 62.6376 51.6727 65.2268 40.2778 56.5637C33.7965 51.6362 35.1091 38.9595 35.1091 30.3697C35.1091 23.5259 43.4753 30.9756 43.2313 25.055C42.6307 10.4802 36.5626 0 47.2924 0C49.9551 0 52.8393 0.338022 55.7839 1.02497C60.3954 2.10081 65.1551 4.03248 69.444 6.86184C71.2867 8.07743 73.0424 9.45872 74.6623 11.009C80.5065 16.6024 84.5809 24.396 84.5809 34.5456Z" fill="#9F60FF"/>
<path d="M247.328 36.5139C250.096 58.3528 240.011 38.1526 250.611 62.4093C257.757 61.5034 275.364 61.6967 282.818 52.6378C287.058 47.4852 284.601 35.9233 283.597 28.0053C282.798 21.6966 277.452 29.3517 276.942 23.8711C275.685 10.3794 278.969 0.147163 270.997 1.1577C269.018 1.40848 266.915 1.9917 264.807 2.90225C261.507 4.32828 258.196 6.55717 255.34 9.56923C254.113 10.8633 252.97 12.3019 251.947 13.8836C248.259 19.59 246.142 27.1579 247.328 36.5139Z" fill="#9F60FF"/>
<path d="M48.6335 175.595C37.081 190.813 22.1856 198.952 15.3637 193.773C8.54167 188.594 11.3412 167.17 22.8936 151.952C34.4461 136.734 50.3767 133.484 57.1987 138.663C64.0207 143.842 60.1859 160.377 48.6335 175.595Z" fill="#9F60FF"/>
<path d="M286.429 170.787C279.565 152.956 280.48 136.007 288.473 132.93C296.466 129.853 313.213 143.505 320.077 161.336C326.942 179.166 321.324 194.424 313.331 197.501C305.338 200.578 293.293 188.618 286.429 170.787Z" fill="#9F60FF"/>
<path d="M160 85C160 90.5228 164.701 95 170.5 95C176.299 95 181 90.5228 181 85" stroke="#353338" stroke-width="4"/>
<path d="M155 68C155 62.4772 150.299 58 144.5 58C138.701 58 134 62.4772 134 68" stroke="#353338" stroke-width="4"/>
<path d="M205 68C205 62.4772 200.299 58 194.5 58C188.701 58 184 62.4772 184 68" stroke="#353338" stroke-width="4"/>
</svg>
