<svg width="332" height="304" viewBox="0 0 332 304" fill="none" xmlns="http://www.w3.org/2000/svg">
<circle cx="170.5" cy="163.5" r="135.5" fill="#9F60FF"/>
<path d="M162 110C162 117.18 167.82 123 175 123C182.18 123 188 117.18 188 110" stroke="#1E1E1E" stroke-width="4"/>
<circle cx="133.5" cy="100" r="6" fill="#1E1E1E"/>
<circle cx="210" cy="96" r="6" fill="#1E1E1E"/>
<path d="M94.581 34.5456C94.581 50.6259 101.163 46.8223 100.997 50.2405C100.918 51.8584 97.7834 53.8567 94.581 62.6376C84.963 62.6376 61.6728 65.2268 50.2779 56.5637C43.7966 51.6362 45.1092 38.9595 45.1092 30.3697C45.1092 23.5259 53.4754 30.9756 53.2314 25.055C52.6308 10.4802 46.5627 0 57.2926 0C59.9553 0 62.8394 0.338022 65.784 1.02497C70.3955 2.10081 75.1552 4.03248 79.4441 6.86184C81.2868 8.07743 83.0426 9.45872 84.6624 11.009C90.5066 16.6024 94.581 24.396 94.581 34.5456Z" fill="#9F60FF"/>
<path d="M240.328 36.5139C243.096 58.3528 233.011 38.1526 243.611 62.4093C250.757 61.5034 268.364 61.6967 275.818 52.6378C280.058 47.4852 277.601 35.9233 276.597 28.0053C275.798 21.6966 270.452 29.3517 269.942 23.8711C268.685 10.3794 271.969 0.147163 263.997 1.1577C262.018 1.40848 259.915 1.9917 257.807 2.90225C254.507 4.32828 251.196 6.55717 248.34 9.56923C247.113 10.8633 245.97 12.3019 244.947 13.8836C241.259 19.59 239.142 27.1579 240.328 36.5139Z" fill="#9F60FF"/>
<path d="M48.6336 180.595C37.0811 195.813 22.1858 203.952 15.3638 198.773C8.5418 193.594 11.3413 172.17 22.8938 156.952C34.4462 141.734 50.3768 138.484 57.1988 143.663C64.0208 148.842 60.186 165.377 48.6336 180.595Z" fill="#9F60FF"/>
<path d="M130.132 284.255C121.854 295.16 106.335 297.314 95.4696 289.066C84.6043 280.818 79.1269 259.785 87.4051 248.88C95.6832 237.975 114.582 241.327 125.447 249.575C136.313 257.823 138.41 273.35 130.132 284.255Z" fill="#9F60FF"/>
<path d="M228.81 297.704C215.14 298.46 203.448 288.031 202.695 274.41C201.942 260.79 214.42 242.994 228.091 242.239C241.761 241.483 251.447 258.054 252.199 271.674C252.952 285.295 242.48 296.949 228.81 297.704Z" fill="#9F60FF"/>
<path d="M286.429 175.787C279.565 157.956 280.48 141.007 288.473 137.93C296.466 134.853 313.213 148.505 320.077 166.335C326.942 184.166 321.324 199.424 313.331 202.501C305.338 205.578 293.293 193.618 286.429 175.787Z" fill="#9F60FF"/>
</svg>
